<?xml version="1.0" encoding="utf-8"?>
<!-- Generator: Adobe Illustrator 23.0.1, SVG Export Plug-In . SVG Version: 6.00 Build 0)  -->
<svg version="1.1" id="Ebene_1" xmlns="http://www.w3.org/2000/svg" xmlns:xlink="http://www.w3.org/1999/xlink" x="0px" y="0px"
	 viewBox="0 0 350 120" style="enable-background:new 0 0 350 120;" xml:space="preserve">
<style type="text/css">
	.st0{fill:#008EBD;}
</style>
<g>
	<path class="st0" d="M187.7,17.1c-1.6,0.2-17.5,35.8-17.1,36.8c0.4,1,1.8,1,4.2,1.4c0.7,0.1,1.6,0.3,2.6,0.5l0,0
		c0,0,5.2,0.9,11.3,3.3c1,0.3,3,0.8,3.7-0.4c0.1-0.1,0.1-0.2,0.2-0.3c3.2-5.6,13.6-31.1,13-32.5C204.8,24,189.2,16.9,187.7,17.1z
		 M196.6,38.4c-0.5,1.9-18.1,13.2-19.1,13.8c-0.9,0.6-1.4,0.7-1.9,0.7c-0.1,0-0.3,0-0.3,0c0-0.1,0.2-0.2,0.4-0.4
		c13.4-10.4,15.4-12.2,16.5-15.3c1.1-2.9-1.6-13.8-2-15.6c0-0.2,0-0.2,0-0.3c0-0.1,0.1-0.1,0.2-0.2c0.1-0.1,0.2,0,0.3,0.1
		c0.1,0.1,0.1,0.1,0.1,0.2C191.8,23.3,197.1,36.6,196.6,38.4z"/>
	<path class="st0" d="M0,0v120h350V0H0z M143.2,75.5l-4.4-1.4l0.2-0.6l4.4,1.4L143.2,75.5z M143.7,74.1l-6.1-1.9l0.2-0.6l6.1,1.9
		L143.7,74.1z M144.1,72.7l-8.1-2.5l0.2-0.6l8.1,2.5L144.1,72.7z M183.8,97.2l-4.2-1.9l0.2-0.5l4.2,1.9L183.8,97.2z M184.4,95.8
		l-5.9-2.6l0.2-0.5l5.9,2.6L184.4,95.8z M185,94.5l-7.8-3.4l0.2-0.5l7.8,3.4L185,94.5z M197,63.3c2.1,1.3,3.9,2.7,4.6,4.1
		c1.4,2.7,1,4.9,0.3,7.2c-1,4.6-5.4,17.2-5.6,18.1c-0.2,0.7-0.5,1.4-0.5,1.4c0.5,1.3,6.2,2.9,8.1,2.9c1.7,0,1.6,1.6,1.2,2
		c-2.9,2.4-14.2,2.1-16.4,1.8c-2.6-0.4-2.5-2.3-2.5-2.3c0.2-1.8,2.6-5.5,2.6-5.5c5.4-8.8,3.3-15.9,4.9-19.8c0.5-0.9,0.5-1.1,0.5-1.1
		c-0.2-0.1-0.5-0.2-1-0.4c-2.1-0.8-6.4-1.3-8.2-1.7c-0.2,0-1.4-0.3-3-0.8c-0.3,1.5-0.8,3.2-1.4,4.8c0,0,0,0,0,0
		c-2.2,5.9-6.1,12.1-7.6,12.5c-2.5,0.6-14.9-5.2-19.8-4.5c-0.6,0.1-0.8,0.2-0.8,0.2c-1.3,0.4-3.5,6.1-3.7,8c-0.1,1.7-1.7,1.4-2.1,1
		c-2.2-3.1-1-13.8-0.5-16c0.6-2.6,2.7-2.5,2.7-2.5c2.2,0,3.4,0.9,5.2,2.6c0.7,0.9,3,1.5,5.7,1.9c3,0.5,6.1-0.4,9.6,0.9
		c1.2-2.2,3.5-12.6,3.4-13.4c0,0,0,0,0,0c0,0,0,0,0,0v0c0,0,0,0,0,0c0,0,0,0,0,0l0,0c0,0,0,0,0,0c-1.6-1.8-2.5-4-1.5-7
		c0,0-2.2-0.8-3.2-2.6c-1-1.8,16.5-39.7,19-40.7c2.5-0.9,21.2,7.1,22.2,10.1c1.1,3.6-12.6,33.4-14.6,37.3
		C195.1,62.1,196.1,62.7,197,63.3z"/>
	<path class="st0" d="M181.7,69L181.7,69c0,0-0.2,0-0.3-0.1C181.5,68.9,181.6,69,181.7,69C181.7,69,181.7,69,181.7,69L181.7,69z"/>
</g>
</svg>
